<svg xmlns="http://www.w3.org/2000/svg" width="1920" height="1080"><path d="M-242,1476L-524,1463L962,1565Z" fill="#3cd6bd" stroke="#3cd6bd" stroke-width="1.51"/><path d="M411,1493L246,1483L962,1565Z" fill="#3bdcb6" stroke="#3bdcb6" stroke-width="1.51"/><path d="M246,1483L-242,1476L962,1565Z" fill="#3cd9b9" stroke="#3cd9b9" stroke-width="1.51"/><path d="M256,-511L1038,-451L1346,-473Z" fill="#31bfd7" stroke="#31bfd7" stroke-width="1.51"/><path d="M2241,645L2331,1021L2353,524Z" fill="#39e4ac" stroke="#39e4ac" stroke-width="1.51"/><path d="M2353,524L2331,1021L2394,1248Z" fill="#37e8a8" stroke="#37e8a8" stroke-width="1.51"/><path d="M2125,485L2353,524L2423,263Z" fill="#3bdfb2" stroke="#3bdfb2" stroke-width="1.51"/><path d="M2353,524L2394,1248L2423,263Z" fill="#39e5ad" stroke="#39e5ad" stroke-width="1.51"/><path d="M2172,-423L2068,-23L2424,-149Z" fill="#3cd4c0" stroke="#3cd4c0" stroke-width="1.51"/><path d="M2092,109L2423,263L2424,-149Z" fill="#3cdab9" stroke="#3cdab9" stroke-width="1.51"/><path d="M2068,-23L2092,109L2424,-149Z" fill="#3cd7bd" stroke="#3cd7bd" stroke-width="1.51"/><path d="M2172,-423L2424,-149L2425,-323Z" fill="#3bd4bf" stroke="#3bd4bf" stroke-width="1.51"/><path d="M1346,-473L1888,-302L2172,-423Z" fill="#39ccc9" stroke="#39ccc9" stroke-width="1.51"/><path d="M2092,109L2125,485L2423,263Z" fill="#3bdcb6" stroke="#3bdcb6" stroke-width="1.51"/><path d="M2241,645L1992,826L2331,1021Z" fill="#39e5ac" stroke="#39e5ac" stroke-width="1.51"/><path d="M2331,1021L2063,1371L2394,1248Z" fill="#34eca4" stroke="#34eca4" stroke-width="1.51"/><path d="M2063,1371L2256,1496L2394,1248Z" fill="#32eea0" stroke="#32eea0" stroke-width="1.51"/><path d="M1957,1285L2063,1371L2331,1021Z" fill="#35eaa5" stroke="#35eaa5" stroke-width="1.51"/><path d="M2125,485L2241,645L2353,524Z" fill="#3ae0b0" stroke="#3ae0b0" stroke-width="1.51"/><path d="M1992,826L1871,947L2331,1021Z" fill="#38e5ac" stroke="#38e5ac" stroke-width="1.51"/><path d="M1871,947L1957,1285L2331,1021Z" fill="#37e7a9" stroke="#37e7a9" stroke-width="1.51"/><path d="M1888,-302L2068,-23L2172,-423Z" fill="#3bd1c3" stroke="#3bd1c3" stroke-width="1.51"/><path d="M2063,1371L1712,1616L2256,1496Z" fill="#32eda1" stroke="#32eda1" stroke-width="1.51"/><path d="M2125,485L1949,649L2241,645Z" fill="#3be0b2" stroke="#3be0b2" stroke-width="1.51"/><path d="M1949,649L1992,826L2241,645Z" fill="#3ae1b1" stroke="#3ae1b1" stroke-width="1.51"/><path d="M2092,109L1848,392L2125,485Z" fill="#3cdab8" stroke="#3cdab8" stroke-width="1.51"/><path d="M1848,392L1949,649L2125,485Z" fill="#3bddb5" stroke="#3bddb5" stroke-width="1.51"/><path d="M1871,947L1771,1080L1957,1285Z" fill="#39e5ab" stroke="#39e5ab" stroke-width="1.51"/><path d="M1957,1285L1712,1616L2063,1371Z" fill="#35eba4" stroke="#35eba4" stroke-width="1.51"/><path d="M1888,-302L1787,-43L2068,-23Z" fill="#3cd1c2" stroke="#3cd1c2" stroke-width="1.51"/><path d="M1674,248L1848,392L2092,109Z" fill="#3cd7bc" stroke="#3cd7bc" stroke-width="1.51"/><path d="M1787,-43L1674,248L2092,109Z" fill="#3cd5bf" stroke="#3cd5bf" stroke-width="1.51"/><path d="M2068,-23L1787,-43L2092,109Z" fill="#3cd5bf" stroke="#3cd5bf" stroke-width="1.51"/><path d="M1692,625L1871,947L1949,649Z" fill="#3bdfb3" stroke="#3bdfb3" stroke-width="1.51"/><path d="M1577,1405L1712,1616L1957,1285Z" fill="#36e9a7" stroke="#36e9a7" stroke-width="1.51"/><path d="M1949,649L1871,947L1992,826Z" fill="#3ae1b0" stroke="#3ae1b0" stroke-width="1.51"/><path d="M1848,392L1692,625L1949,649Z" fill="#3bdcb7" stroke="#3bdcb7" stroke-width="1.51"/><path d="M1771,1080L1577,1405L1957,1285Z" fill="#38e7aa" stroke="#38e7aa" stroke-width="1.51"/><path d="M1692,625L1556,1024L1871,947Z" fill="#3bdfb3" stroke="#3bdfb3" stroke-width="1.51"/><path d="M1386,-317L1787,-43L1888,-302Z" fill="#3bcdc8" stroke="#3bcdc8" stroke-width="1.51"/><path d="M1346,-473L1386,-317L1888,-302Z" fill="#39c9cc" stroke="#39c9cc" stroke-width="1.51"/><path d="M1386,-317L1386,-150L1787,-43Z" fill="#3accc8" stroke="#3accc8" stroke-width="1.51"/><path d="M1583,400L1692,625L1848,392Z" fill="#3cd9ba" stroke="#3cd9ba" stroke-width="1.51"/><path d="M1556,1024L1771,1080L1871,947Z" fill="#3ae2af" stroke="#3ae2af" stroke-width="1.51"/><path d="M1529,41L1674,248L1787,-43Z" fill="#3cd2c2" stroke="#3cd2c2" stroke-width="1.51"/><path d="M1674,248L1583,400L1848,392Z" fill="#3cd7bc" stroke="#3cd7bc" stroke-width="1.51"/><path d="M1355,818L1556,1024L1692,625Z" fill="#3cdcb6" stroke="#3cdcb6" stroke-width="1.51"/><path d="M1556,1024L1577,1405L1771,1080Z" fill="#39e3ae" stroke="#39e3ae" stroke-width="1.51"/><path d="M1386,-150L1529,41L1787,-43Z" fill="#3bcfc6" stroke="#3bcfc6" stroke-width="1.51"/><path d="M1198,1407L962,1565L1712,1616Z" fill="#38e5ab" stroke="#38e5ab" stroke-width="1.51"/><path d="M1556,1024L1407,1091L1577,1405Z" fill="#3ae2af" stroke="#3ae2af" stroke-width="1.51"/><path d="M1438,556L1355,818L1692,625Z" fill="#3cd9b9" stroke="#3cd9b9" stroke-width="1.51"/><path d="M1583,400L1438,556L1692,625Z" fill="#3cd8bb" stroke="#3cd8bb" stroke-width="1.51"/><path d="M1577,1405L1198,1407L1712,1616Z" fill="#37e7a9" stroke="#37e7a9" stroke-width="1.51"/><path d="M1407,1091L1356,1334L1577,1405Z" fill="#39e3ae" stroke="#39e3ae" stroke-width="1.51"/><path d="M1529,41L1583,400L1674,248Z" fill="#3bd3c0" stroke="#3bd3c0" stroke-width="1.51"/><path d="M1356,1334L1198,1407L1577,1405Z" fill="#39e4ad" stroke="#39e4ad" stroke-width="1.51"/><path d="M1255,453L1438,556L1583,400Z" fill="#3cd5be" stroke="#3cd5be" stroke-width="1.51"/><path d="M1529,41L1222,111L1583,400Z" fill="#3bd1c3" stroke="#3bd1c3" stroke-width="1.51"/><path d="M1222,111L1255,453L1583,400Z" fill="#3cd2c2" stroke="#3cd2c2" stroke-width="1.51"/><path d="M1355,818L1407,1091L1556,1024Z" fill="#3bdeb4" stroke="#3bdeb4" stroke-width="1.51"/><path d="M1386,-150L1222,111L1529,41Z" fill="#3acdc7" stroke="#3acdc7" stroke-width="1.51"/><path d="M591,1476L411,1493L962,1565Z" fill="#3bddb5" stroke="#3bddb5" stroke-width="1.51"/><path d="M1355,818L1068,866L1407,1091Z" fill="#3cdbb7" stroke="#3cdbb7" stroke-width="1.51"/><path d="M1150,701L1355,818L1438,556Z" fill="#3cd8bb" stroke="#3cd8bb" stroke-width="1.51"/><path d="M1255,453L1150,701L1438,556Z" fill="#3cd5be" stroke="#3cd5be" stroke-width="1.51"/><path d="M994,1115L1198,1407L1356,1334Z" fill="#3be0b2" stroke="#3be0b2" stroke-width="1.51"/><path d="M1386,-317L1149,-150L1386,-150Z" fill="#39c9cc" stroke="#39c9cc" stroke-width="1.51"/><path d="M1149,-150L1222,111L1386,-150Z" fill="#39caca" stroke="#39caca" stroke-width="1.51"/><path d="M1068,866L994,1115L1407,1091Z" fill="#3cdbb7" stroke="#3cdbb7" stroke-width="1.51"/><path d="M994,1115L1356,1334L1407,1091Z" fill="#3bdfb3" stroke="#3bdfb3" stroke-width="1.51"/><path d="M1346,-473L1038,-451L1386,-317Z" fill="#36c5d1" stroke="#36c5d1" stroke-width="1.51"/><path d="M1038,-451L1149,-150L1386,-317Z" fill="#37c6d0" stroke="#37c6d0" stroke-width="1.51"/><path d="M1150,701L1068,866L1355,818Z" fill="#3cd8bb" stroke="#3cd8bb" stroke-width="1.51"/><path d="M1222,111L982,312L1255,453Z" fill="#3bcfc5" stroke="#3bcfc5" stroke-width="1.51"/><path d="M982,312L960,710L1150,701Z" fill="#3cd2c2" stroke="#3cd2c2" stroke-width="1.51"/><path d="M982,312L1150,701L1255,453Z" fill="#3cd2c2" stroke="#3cd2c2" stroke-width="1.51"/><path d="M845,-77L856,108L1149,-150Z" fill="#37c7ce" stroke="#37c7ce" stroke-width="1.51"/><path d="M1149,-150L856,108L1222,111Z" fill="#39cacb" stroke="#39cacb" stroke-width="1.51"/><path d="M856,108L982,312L1222,111Z" fill="#3accc9" stroke="#3accc9" stroke-width="1.51"/><path d="M994,1115L962,1565L1198,1407Z" fill="#3bdfb2" stroke="#3bdfb2" stroke-width="1.51"/><path d="M256,-511L788,-313L1038,-451Z" fill="#30bed8" stroke="#30bed8" stroke-width="1.51"/><path d="M1038,-451L788,-313L1149,-150Z" fill="#35c4d2" stroke="#35c4d2" stroke-width="1.51"/><path d="M788,-313L845,-77L1149,-150Z" fill="#36c5d1" stroke="#36c5d1" stroke-width="1.51"/><path d="M960,710L1068,866L1150,701Z" fill="#3cd5be" stroke="#3cd5be" stroke-width="1.51"/><path d="M580,1225L591,1476L962,1565Z" fill="#3bdcb6" stroke="#3bdcb6" stroke-width="1.51"/><path d="M705,550L960,710L982,312Z" fill="#3bd0c5" stroke="#3bd0c5" stroke-width="1.51"/><path d="M580,1225L962,1565L994,1115Z" fill="#3cdcb6" stroke="#3cdcb6" stroke-width="1.51"/><path d="M732,1017L994,1115L1068,866Z" fill="#3cd8bb" stroke="#3cd8bb" stroke-width="1.51"/><path d="M960,710L732,1017L1068,866Z" fill="#3cd6be" stroke="#3cd6be" stroke-width="1.51"/><path d="M696,387L705,550L982,312Z" fill="#3acdc7" stroke="#3acdc7" stroke-width="1.51"/><path d="M256,-511L419,-334L788,-313Z" fill="#2ebcdb" stroke="#2ebcdb" stroke-width="1.51"/><path d="M732,1017L580,1225L994,1115Z" fill="#3cd8bb" stroke="#3cd8bb" stroke-width="1.51"/><path d="M856,108L696,387L982,312Z" fill="#3acbca" stroke="#3acbca" stroke-width="1.51"/><path d="M705,550L732,1017L960,710Z" fill="#3cd2c1" stroke="#3cd2c1" stroke-width="1.51"/><path d="M788,-313L565,-104L845,-77Z" fill="#35c3d3" stroke="#35c3d3" stroke-width="1.51"/><path d="M600,191L696,387L856,108Z" fill="#38c9cc" stroke="#38c9cc" stroke-width="1.51"/><path d="M845,-77L565,-104L856,108Z" fill="#36c5d0" stroke="#36c5d0" stroke-width="1.51"/><path d="M565,-104L600,191L856,108Z" fill="#36c6d0" stroke="#36c6d0" stroke-width="1.51"/><path d="M565,-104L483,7L600,191Z" fill="#35c3d2" stroke="#35c3d2" stroke-width="1.51"/><path d="M705,550L353,556L732,1017Z" fill="#3bcfc5" stroke="#3bcfc5" stroke-width="1.51"/><path d="M353,556L326,1053L732,1017Z" fill="#3bd0c3" stroke="#3bd0c3" stroke-width="1.51"/><path d="M553,1158L580,1225L732,1017Z" fill="#3cd7bc" stroke="#3cd7bc" stroke-width="1.51"/><path d="M419,-334L565,-104L788,-313Z" fill="#31bfd7" stroke="#31bfd7" stroke-width="1.51"/><path d="M326,1053L553,1158L732,1017Z" fill="#3cd5be" stroke="#3cd5be" stroke-width="1.51"/><path d="M696,387L353,556L705,550Z" fill="#3accc9" stroke="#3accc9" stroke-width="1.51"/><path d="M188,912L326,1053L353,556Z" fill="#3bcec7" stroke="#3bcec7" stroke-width="1.51"/><path d="M600,191L315,364L696,387Z" fill="#38c8cd" stroke="#38c8cd" stroke-width="1.51"/><path d="M315,364L353,556L696,387Z" fill="#38c9cc" stroke="#38c9cc" stroke-width="1.51"/><path d="M580,1225L411,1493L591,1476Z" fill="#3cdab9" stroke="#3cdab9" stroke-width="1.51"/><path d="M483,7L315,364L600,191Z" fill="#36c5d0" stroke="#36c5d0" stroke-width="1.51"/><path d="M350,-18L315,364L483,7Z" fill="#35c3d2" stroke="#35c3d2" stroke-width="1.51"/><path d="M553,1158L326,1053L580,1225Z" fill="#3cd5be" stroke="#3cd5be" stroke-width="1.51"/><path d="M326,1053L411,1493L580,1225Z" fill="#3cd7bd" stroke="#3cd7bd" stroke-width="1.51"/><path d="M326,1053L246,1483L411,1493Z" fill="#3cd7bd" stroke="#3cd7bd" stroke-width="1.51"/><path d="M350,-18L483,7L565,-104Z" fill="#33c1d4" stroke="#33c1d4" stroke-width="1.51"/><path d="M419,-334L350,-18L565,-104Z" fill="#31bfd7" stroke="#31bfd7" stroke-width="1.51"/><path d="M75,1324L246,1483L326,1053Z" fill="#3cd4bf" stroke="#3cd4bf" stroke-width="1.51"/><path d="M57,6L315,364L350,-18Z" fill="#34c1d4" stroke="#34c1d4" stroke-width="1.51"/><path d="M189,544L188,912L353,556Z" fill="#39caca" stroke="#39caca" stroke-width="1.51"/><path d="M101,-113L350,-18L419,-334Z" fill="#2fbdd9" stroke="#2fbdd9" stroke-width="1.51"/><path d="M256,-511L101,-113L419,-334Z" fill="#2cbadc" stroke="#2cbadc" stroke-width="1.51"/><path d="M315,364L189,544L353,556Z" fill="#38c8cd" stroke="#38c8cd" stroke-width="1.51"/><path d="M101,-113L57,6L350,-18Z" fill="#30bed8" stroke="#30bed8" stroke-width="1.51"/><path d="M-4,833L188,912L189,544Z" fill="#39caca" stroke="#39caca" stroke-width="1.51"/><path d="M-99,-433L101,-113L256,-511Z" fill="#28b8df" stroke="#28b8df" stroke-width="1.51"/><path d="M-167,242L95,520L315,364Z" fill="#36c4d2" stroke="#36c4d2" stroke-width="1.51"/><path d="M57,6L-167,242L315,364Z" fill="#33c1d5" stroke="#33c1d5" stroke-width="1.51"/><path d="M188,912L75,1324L326,1053Z" fill="#3bd1c3" stroke="#3bd1c3" stroke-width="1.51"/><path d="M95,520L189,544L315,364Z" fill="#37c7ce" stroke="#37c7ce" stroke-width="1.51"/><path d="M-167,242L-45,491L95,520Z" fill="#35c3d2" stroke="#35c3d2" stroke-width="1.51"/><path d="M95,520L-4,833L189,544Z" fill="#38c8cd" stroke="#38c8cd" stroke-width="1.51"/><path d="M75,1324L-242,1476L246,1483Z" fill="#3cd5bf" stroke="#3cd5bf" stroke-width="1.51"/><path d="M-4,833L-197,1247L75,1324Z" fill="#3bcfc6" stroke="#3bcfc6" stroke-width="1.51"/><path d="M-56,594L-4,833L95,520Z" fill="#37c8ce" stroke="#37c8ce" stroke-width="1.51"/><path d="M-4,833L75,1324L188,912Z" fill="#3bcec5" stroke="#3bcec5" stroke-width="1.51"/><path d="M-99,-433L-112,-157L101,-113Z" fill="#29b8de" stroke="#29b8de" stroke-width="1.51"/><path d="M-112,-157L57,6L101,-113Z" fill="#2dbcdb" stroke="#2dbcdb" stroke-width="1.51"/><path d="M-45,491L-56,594L95,520Z" fill="#36c5d0" stroke="#36c5d0" stroke-width="1.51"/><path d="M-197,1247L-242,1476L75,1324Z" fill="#3cd1c3" stroke="#3cd1c3" stroke-width="1.51"/><path d="M-112,-157L-167,242L57,6Z" fill="#2ebcda" stroke="#2ebcda" stroke-width="1.51"/><path d="M-446,831L-308,1248L-197,1247Z" fill="#3acbca" stroke="#3acbca" stroke-width="1.51"/><path d="M-446,831L-197,1247L-4,833Z" fill="#39cacb" stroke="#39cacb" stroke-width="1.51"/><path d="M-56,594L-322,606L-4,833Z" fill="#37c6cf" stroke="#37c6cf" stroke-width="1.51"/><path d="M-322,606L-446,831L-4,833Z" fill="#37c6cf" stroke="#37c6cf" stroke-width="1.51"/><path d="M-260,-186L-167,242L-112,-157Z" fill="#2bbadd" stroke="#2bbadd" stroke-width="1.51"/><path d="M-260,-186L-112,-157L-99,-433Z" fill="#26b7e0" stroke="#26b7e0" stroke-width="1.51"/><path d="M-334,-361L-260,-186L-99,-433Z" fill="#21b5e2" stroke="#21b5e2" stroke-width="1.51"/><path d="M-322,606L-56,594L-45,491Z" fill="#35c4d1" stroke="#35c4d1" stroke-width="1.51"/><path d="M-167,242L-322,606L-45,491Z" fill="#33c2d4" stroke="#33c2d4" stroke-width="1.51"/><path d="M-260,-186L-447,270L-167,242Z" fill="#2cbbdc" stroke="#2cbbdc" stroke-width="1.51"/><path d="M-447,270L-322,606L-167,242Z" fill="#31bfd7" stroke="#31bfd7" stroke-width="1.51"/><path d="M-308,1248L-242,1476L-197,1247Z" fill="#3bcfc5" stroke="#3bcfc5" stroke-width="1.51"/><path d="M-499,268L-447,270L-260,-186Z" fill="#2bbadd" stroke="#2bbadd" stroke-width="1.51"/><path d="M-308,1248L-524,1463L-242,1476Z" fill="#3bcfc5" stroke="#3bcfc5" stroke-width="1.51"/><path d="M-334,-361L-499,268L-260,-186Z" fill="#26b7e0" stroke="#26b7e0" stroke-width="1.51"/><path d="M-447,270L-499,268L-322,606Z" fill="#30bed8" stroke="#30bed8" stroke-width="1.51"/><path d="M-446,831L-524,1463L-308,1248Z" fill="#39cbc9" stroke="#39cbc9" stroke-width="1.51"/><path d="M-499,268L-446,831L-322,606Z" fill="#33c1d5" stroke="#33c1d5" stroke-width="1.51"/><path d="M-499,268L-524,1463L-446,831Z" fill="#36c5d1" stroke="#36c5d1" stroke-width="1.51"/></svg>